<svg viewBox="0 0 25 23" xmlns="http://www.w3.org/2000/svg" fill="#6950f3"><path d="M9.75 20.75V15.5a.75.75 0 0 1 .75-.75h4a.75.75 0 0 1 .75.75v5.25h4.5V12.5a.75.75 0 1 1 1.5 0v9a.75.75 0 0 1-.75.75h-16a.75.75 0 0 1-.75-.75v-9a.75.75 0 1 1 1.5 0v8.25h4.5zm1.5 0h2.5v-4.5h-2.5v4.5zm-1.416-10.5a3.727 3.727 0 0 1-2.669-1.124A3.743 3.743 0 0 1 .75 6.498a.75.75 0 0 1 .107-.384l3-5A.75.75 0 0 1 4.5.75h16a.75.75 0 0 1 .643.364l3 5a.75.75 0 0 1 .107.384 3.742 3.742 0 0 1-6.415 2.628 3.727 3.727 0 0 1-5.335.001 3.727 3.727 0 0 1-2.666 1.123zm-4.91-8L2.259 6.695a2.242 2.242 0 0 0 4.238.816.75.75 0 0 1 1.343.003 2.227 2.227 0 0 0 3.99 0 .75.75 0 0 1 1.343 0 2.227 2.227 0 0 0 3.99 0 .75.75 0 0 1 1.342-.003 2.242 2.242 0 0 0 4.238-.816L20.075 2.25H4.925z"></path></svg>